<!DOCTYPE svg PUBLIC "-//W3C//DTD SVG 20010904//EN" "http://www.w3.org/TR/2001/REC-SVG-20010904/DTD/svg10.dtd">
<svg version="1.0" xmlns="http://www.w3.org/2000/svg" width="1600px" height="828px" viewBox="0 0 16000 8280" preserveAspectRatio="xMidYMid meet">
<g id="layer101" fill="#000000" stroke="none">
 <path d="M672 6608 l3 -1673 115 -86 c63 -48 306 -227 540 -399 234 -173 485 -358 558 -412 73 -54 134 -98 137 -98 3 0 6 265 7 590 l3 589 75 -51 c41 -27 89 -63 105 -78 28 -26 389 -296 467 -350 20 -14 79 -59 132 -100 l96 -75 0 -585 c0 -322 4 -590 8 -596 4 -6 70 -57 147 -114 77 -57 172 -126 210 -155 39 -29 219 -162 400 -295 182 -134 385 -284 453 -334 67 -50 127 -92 132 -94 7 -3 10 539 10 1562 l0 1565 57 38 c31 21 58 43 59 48 2 6 -37 39 -86 75 -50 36 -138 102 -197 148 -60 45 -126 94 -148 109 -22 15 -81 59 -130 99 -50 40 -116 90 -146 111 -31 21 -153 112 -273 203 -120 91 -245 185 -279 209 -34 24 -91 67 -127 96 -36 29 -90 70 -121 92 -30 21 -153 112 -272 203 -119 91 -238 180 -264 198 -27 18 -92 67 -145 109 -53 41 -117 89 -142 107 -25 17 -143 105 -262 196 -119 91 -242 182 -273 204 -31 21 -87 64 -125 95 -38 31 -95 74 -126 96 -79 56 -444 330 -508 382 -29 24 -62 43 -72 43 -20 0 -20 -16 -18 -1672z"/>
 <path d="M15215 8199 c-55 -44 -121 -94 -146 -112 -75 -53 -471 -353 -509 -386 -19 -17 -39 -31 -45 -31 -5 -1 -35 -21 -65 -46 -30 -25 -91 -72 -135 -104 -131 -98 -216 -163 -269 -206 l-51 -40 -7 -1135 c-4 -624 -9 -1231 -10 -1349 l-3 -215 -84 280 c-46 154 -88 300 -93 325 -4 25 -51 189 -103 365 -51 176 -104 359 -116 408 -12 48 -27 87 -33 87 -11 0 -25 -42 -107 -335 -23 -82 -86 -300 -140 -483 -55 -184 -99 -340 -99 -348 0 -8 -19 -79 -42 -157 l-43 -142 -3 1018 c-2 804 -5 1017 -15 1017 -6 0 -28 -14 -47 -31 -62 -53 -148 -119 -156 -119 -4 0 -37 -24 -73 -54 -36 -29 -145 -111 -241 -183 -96 -71 -181 -137 -189 -146 -7 -9 -18 -17 -24 -17 -11 0 -98 -63 -167 -122 -25 -21 -75 -60 -112 -86 -174 -121 -457 -338 -454 -347 1 -5 29 -27 61 -49 l58 -39 -7 -1563 c-4 -860 -4 -1564 -1 -1564 4 0 160 113 348 252 188 139 486 358 662 488 176 130 545 402 820 605 1000 738 1105 815 1410 1039 171 126 320 238 333 249 l22 20 0 1669 c0 1328 -3 1668 -12 1668 -7 -1 -58 -37 -113 -81z"/>
 <path d="M6605 6949 c-33 -27 -85 -66 -115 -86 -30 -20 -68 -48 -85 -63 -16 -15 -100 -78 -185 -140 -85 -62 -178 -132 -207 -156 -28 -24 -55 -44 -60 -44 -8 -1 -99 -69 -174 -131 -24 -20 -69 -54 -100 -75 -31 -22 -154 -113 -274 -204 -120 -91 -243 -182 -274 -204 -31 -21 -85 -62 -121 -91 -36 -29 -90 -70 -120 -92 -104 -71 -485 -360 -503 -380 -16 -19 -17 -101 -15 -1505 l3 -1485 460 340 c253 186 550 405 660 485 110 81 208 155 217 165 17 16 18 57 18 599 l0 582 28 24 c43 36 449 342 517 389 33 23 85 63 115 89 30 26 85 67 122 91 38 25 71 50 75 56 5 7 10 -255 13 -582 l5 -593 290 214 c160 117 427 315 595 438 168 124 341 252 385 285 l80 60 3 556 2 555 -43 31 c-23 17 -83 63 -132 103 -50 39 -99 75 -110 80 -11 4 -40 26 -65 47 -41 36 -384 296 -486 368 -23 17 -79 59 -124 94 -44 35 -107 83 -140 105 -32 23 -82 60 -110 84 -28 23 -59 42 -68 42 -10 0 -44 -23 -77 -51z"/>
 <path d="M9260 6940 c-41 -33 -91 -68 -110 -79 -19 -11 -75 -52 -125 -92 -49 -40 -109 -84 -132 -99 -23 -15 -75 -53 -115 -84 -88 -68 -373 -280 -479 -356 -43 -30 -113 -82 -157 -115 l-79 -60 -5 -550 c-4 -489 -3 -552 11 -569 9 -10 90 -73 181 -139 91 -67 293 -216 450 -332 566 -419 701 -517 706 -513 2 3 7 262 11 576 3 315 9 572 13 572 4 0 13 -6 19 -14 7 -8 26 -21 44 -30 18 -8 69 -45 114 -81 46 -36 107 -83 136 -103 30 -20 110 -79 178 -130 68 -51 156 -116 195 -145 39 -29 94 -70 122 -92 l51 -40 0 -581 c1 -448 4 -584 14 -596 6 -9 140 -110 297 -225 157 -115 451 -332 655 -482 203 -151 375 -276 382 -278 11 -4 13 278 13 1473 l0 1479 -48 41 c-46 39 -315 244 -491 374 -48 36 -109 83 -136 105 -26 22 -74 58 -106 80 -32 22 -158 117 -280 210 -122 94 -231 177 -243 185 -26 18 -154 117 -221 170 -27 22 -55 40 -60 40 -6 0 -33 19 -60 43 -48 42 -309 241 -494 377 -48 36 -103 77 -120 93 -18 15 -38 27 -44 27 -7 0 -46 -27 -87 -60z"/>
 <path d="M670 2606 l0 -2084 -68 -57 c-37 -31 -76 -60 -87 -65 -11 -5 -63 -43 -115 -84 -52 -42 -113 -89 -135 -104 -78 -54 -260 -194 -263 -203 -2 -5 759 -9 1916 -9 l1919 0 87 68 c48 37 119 91 159 120 40 30 98 74 130 99 l57 46 0 852 0 853 -37 28 c-21 15 -40 31 -43 34 -3 4 -196 148 -430 320 -234 173 -508 375 -610 450 -102 75 -197 144 -212 154 l-28 18 0 -745 0 -745 -54 -47 -54 -46 -386 7 -386 7 0 1106 c0 608 -4 1111 -8 1117 -10 16 -1335 994 -1346 994 -3 0 -6 -938 -6 -2084z"/>
 <path d="M7880 4641 c-36 -26 -265 -196 -510 -376 -245 -180 -518 -382 -607 -448 l-163 -120 0 -1076 -1 -1076 -56 -43 -57 -43 -331 3 -331 3 -47 40 -46 40 -1 748 c0 483 -3 747 -10 747 -10 0 -106 -69 -655 -475 -192 -142 -408 -301 -480 -354 -71 -52 -149 -111 -173 -130 l-42 -35 0 -861 0 -860 68 -52 c37 -29 86 -65 108 -80 23 -16 90 -65 150 -111 l107 -82 1362 0 1361 0 40 33 c21 19 119 93 217 165 l177 132 0 2180 c0 1199 -3 2180 -7 2180 -5 0 -37 -22 -73 -49z"/>
 <path d="M8050 2511 l0 -2179 153 -112 c83 -62 182 -137 218 -166 l66 -54 1363 0 1363 0 95 73 c51 39 129 97 171 127 43 30 99 72 124 94 l47 38 0 858 0 858 -24 15 c-13 9 -30 22 -38 31 -31 31 -1277 946 -1288 946 -6 0 -10 -269 -11 -747 l0 -748 -54 -43 -54 -42 -329 0 -328 0 -57 43 -56 42 -1 1080 0 1080 -138 101 c-75 56 -326 240 -557 411 -231 170 -470 346 -531 391 -62 45 -117 82 -123 82 -8 0 -11 -587 -11 -2179z"/>
 <path d="M15045 4482 c-155 -114 -458 -338 -675 -498 -217 -160 -604 -446 -860 -634 -256 -189 -582 -430 -725 -535 -918 -676 -979 -721 -1027 -767 -17 -17 -18 -63 -18 -1033 l0 -1015 703 2 702 3 29 110 c16 61 56 202 89 315 32 113 77 270 99 350 22 80 71 251 109 381 38 130 69 242 70 250 0 18 58 -171 59 -192 0 -10 45 -168 100 -353 55 -185 100 -342 100 -349 0 -7 33 -125 73 -262 l74 -250 1026 -3 c818 -2 1027 0 1027 10 0 12 -155 133 -255 200 -22 15 -85 63 -140 107 -55 45 -104 81 -109 81 -9 0 -72 48 -123 94 l-33 29 0 2084 c0 1145 -3 2083 -7 2083 -5 -1 -134 -94 -288 -208z"/>
 </g>

</svg>